<svg width="142" height="23" viewBox="0 0 142 23" fill="none" xmlns="http://www.w3.org/2000/svg">
<path d="M23.4475 8.42486C23.2936 7.96001 22.8714 7.62985 22.3719 7.58589L15.5866 6.98425L12.9035 0.851691C12.7057 0.402254 12.2551 0.111328 11.7545 0.111328C11.2539 0.111328 10.8034 0.402254 10.6055 0.852742L7.92244 6.98425L1.13608 7.58589C0.637451 7.63091 0.216308 7.96001 0.0615184 8.42486C-0.0932715 8.88971 0.0496804 9.39958 0.42688 9.72098L5.55575 14.1134L4.04337 20.619C3.9327 21.0974 4.12282 21.5918 4.52926 21.8787C4.74772 22.0329 5.00331 22.1113 5.26106 22.1113C5.48329 22.1113 5.70373 22.0528 5.90156 21.9372L11.7545 18.5213L17.6053 21.9372C18.0335 22.1887 18.5732 22.1658 18.9787 21.8787C19.3853 21.591 19.5753 21.0963 19.4646 20.619L17.9522 14.1134L23.0811 9.72186C23.4583 9.39958 23.6023 8.89059 23.4475 8.42486Z" fill="#FFCB31"/>
<path d="M82.2196 8.42486C82.0657 7.96001 81.6435 7.62985 81.144 7.58589L74.3587 6.98425L71.6756 0.851691C71.4778 0.402254 71.0272 0.111328 70.5266 0.111328C70.026 0.111328 69.5755 0.402254 69.3776 0.852742L66.6945 6.98425L59.9082 7.58589C59.4095 7.63091 58.9884 7.96001 58.8336 8.42486C58.6788 8.88971 58.8218 9.39958 59.199 9.72098L64.3278 14.1134L62.8155 20.619C62.7048 21.0974 62.8949 21.5918 63.3014 21.8787C63.5198 22.0329 63.7754 22.1113 64.0332 22.1113C64.2554 22.1113 64.4758 22.0528 64.6737 21.9372L70.5266 18.5213L76.3774 21.9372C76.8056 22.1887 77.3453 22.1658 77.7508 21.8787C78.1574 21.591 78.3474 21.0963 78.2367 20.619L76.7243 14.1134L81.8532 9.72186C82.2304 9.39958 82.3744 8.89059 82.2196 8.42486Z" fill="#FFCB31"/>
<path d="M52.8336 8.42486C52.6797 7.96001 52.2575 7.62985 51.758 7.58589L44.9727 6.98425L42.2896 0.851691C42.0918 0.402254 41.6412 0.111328 41.1406 0.111328C40.64 0.111328 40.1895 0.402254 39.9916 0.852742L37.3085 6.98425L30.5222 7.58589C30.0236 7.63091 29.6024 7.96001 29.4476 8.42486C29.2928 8.88971 29.4358 9.39958 29.813 9.72098L34.9419 14.1134L33.4295 20.619C33.3188 21.0974 33.5089 21.5918 33.9154 21.8787C34.1338 22.0329 34.3894 22.1113 34.6472 22.1113C34.8694 22.1113 35.0898 22.0528 35.2877 21.9372L41.1406 18.5213L46.9914 21.9372C47.4196 22.1887 47.9593 22.1658 48.3648 21.8787C48.7714 21.591 48.9614 21.0963 48.8507 20.619L47.3383 14.1134L52.4672 9.72186C52.8444 9.39958 52.9884 8.89059 52.8336 8.42486Z" fill="#FFCB31"/>
<path d="M111.606 8.42486C111.452 7.96001 111.03 7.62985 110.53 7.58589L103.745 6.98425L101.062 0.851691C100.864 0.402254 100.413 0.111328 99.9127 0.111328C99.4121 0.111328 98.9616 0.402254 98.7637 0.852742L96.0806 6.98425L89.2943 7.58589C88.7957 7.63091 88.3745 7.96001 88.2197 8.42486C88.0649 8.88971 88.2079 9.39958 88.5851 9.72098L93.714 14.1134L92.2016 20.619C92.0909 21.0974 92.281 21.5918 92.6875 21.8787C92.9059 22.0329 93.1615 22.1113 93.4193 22.1113C93.6415 22.1113 93.8619 22.0528 94.0598 21.9372L99.9127 18.5213L105.764 21.9372C106.192 22.1887 106.731 22.1658 107.137 21.8787C107.544 21.591 107.733 21.0963 107.623 20.619L106.11 14.1134L111.239 9.72186C111.616 9.39958 111.761 8.89059 111.606 8.42486Z" fill="#FFCB31"/>
<path d="M140.992 8.42486C140.838 7.96001 140.416 7.62985 139.916 7.58589L133.131 6.98425L130.448 0.851691C130.25 0.402254 129.799 0.111328 129.299 0.111328C128.798 0.111328 128.348 0.402254 128.15 0.852742L125.467 6.98425L118.68 7.58589C118.182 7.63091 117.761 7.96001 117.606 8.42486C117.451 8.88971 117.594 9.39958 117.971 9.72098L123.1 14.1134L121.588 20.619C121.477 21.0974 121.667 21.5918 122.074 21.8787C122.292 22.0329 122.548 22.1113 122.805 22.1113C123.028 22.1113 123.248 22.0528 123.446 21.9372L129.299 18.5213L135.15 21.9372C135.578 22.1887 136.117 22.1658 136.523 21.8787C136.93 21.591 137.12 21.0963 137.009 20.619L135.497 14.1134L140.625 9.72186C141.003 9.39958 141.147 8.89059 140.992 8.42486Z" fill="#E6EAEF"/>
</svg>
